<svg viewBox="0 0 542.86 536.37" xmlns="http://www.w3.org/2000/svg" xmlns:xlink="http://www.w3.org/1999/xlink"><linearGradient id="a"><stop offset="0" stop-color="#fff"/><stop offset="1" stop-color="#e3e3e3"/></linearGradient><linearGradient id="b" xlink:href="#a"/><filter id="c"><feGaussianBlur stdDeviation="12.361873"/></filter><linearGradient id="d" gradientUnits="userSpaceOnUse" x1="147.15" x2="128.03" xlink:href="#b" y1="125.73" y2="144.02"/><linearGradient id="e" gradientUnits="userSpaceOnUse" x1="419.65" x2="395.79" xlink:href="#b" y1="76.26" y2="156.71"/><linearGradient id="f" gradientUnits="userSpaceOnUse" x1="407.7" x2="396.22" xlink:href="#b" y1="381.75" y2="414.7"/><linearGradient id="g" gradientUnits="userSpaceOnUse" x1="175.09" x2="121.16" xlink:href="#b" y1="357.32" y2="414.24"/><filter id="h"><feGaussianBlur stdDeviation="11.857422"/></filter><linearGradient id="i" gradientUnits="userSpaceOnUse" x1="428.344" x2="462.214" xlink:href="#b" y1="118.7" y2="76.75"/><linearGradient id="j" gradientTransform="matrix(0 1 -1 0 818.24 -81.032)" gradientUnits="userSpaceOnUse" x1="541.36" x2="514.23" xlink:href="#b" y1="354.62" y2="381.36"/><linearGradient id="k" gradientTransform="matrix(-1 0 0 -1 620.15 817.2)" gradientUnits="userSpaceOnUse" x1="541.36" x2="508.44" xlink:href="#b" y1="354.62" y2="389.81"/><linearGradient id="l" gradientTransform="matrix(0 -1 1 0 -277.93 618.83)" gradientUnits="userSpaceOnUse" x1="511.89" x2="533.22" xlink:href="#b" y1="389.81" y2="372.85"/><radialGradient id="m" cx="372.05" cy="526.18" gradientTransform="matrix(1.0015 .18817 -.1798 .95695 -7.8402 -304.6)" gradientUnits="userSpaceOnUse" r="254.81" xlink:href="#a"/><filter id="n"><feGaussianBlur stdDeviation="7.580558"/></filter><path d="m260.4 16.174c-27.43 1.306-55.17 5.023-80.76 15.424-25.33 10.565-48.35 25.932-69.88 42.797-17.26 13.716-32.682 29.845-44.925 48.215-15.101 21.97-26.177 46.41-35.501 71.3-6.77 18.56-11.299 38.09-11.621 57.91-.876 26.19 2.22 52.43 8.105 77.92 7.107 30.14 19.477 59.2 37.644 84.36 12.306 17.26 27.298 32.38 42.888 46.65 11.95 10.76 24.57 20.98 38.87 28.5 10.42 5.68 21.47 10.09 32.68 13.95 15.24 5.38 30.53 10.7 46.19 14.76 18.39 4.36 37.49 4.45 56.23 2.73 14.8-1.29 29.53-3.29 44.2-5.62 21.46-3.72 42.95-9.61 61.65-21.09 10.89-6.45 21.39-13.55 31.73-20.84 21.64-15.71 41.56-33.92 58.66-54.52 10.5-12.93 18.99-27.55 24.5-43.3 6.54-17.85 11.31-36.29 15.93-54.7 4.66-20.97 6.34-42.56 5.55-64-.83-20.86-4.39-41.52-9.35-61.77-3.64-14.14-8.22-28.13-14.85-41.17-9.64-17.94-23.52-33.05-36.97-48.17-20.94-22.888-44.77-43.555-72.27-58.193-21.72-11.732-45.4-19.429-69.49-24.568-19.43-4.256-39.3-6.888-59.21-6.575zm10.94 7.062c21.23.312 42.29 4.042 62.83 9.298 24.28 6.361 47.95 15.897 68.7 30.191 25.59 17.343 47.31 39.785 66.55 63.845 9.55 12.14 18.41 24.94 25.31 38.79 9.24 20.61 12.92 43.09 16.32 65.26 3.77 27.82 4.64 56.36-1 83.99-4.74 24.43-12.35 48.28-22.34 71.06-3.82 8.31-8.79 16.03-14.43 23.21-11.51 14.91-25.3 27.84-39.17 40.5-21.04 18.87-43.94 36.01-69.47 48.32-18.9 8.95-39.84 12.2-60.47 14.25-12.22 1.11-24.45 2.02-36.71 2.57-18.11.58-36.48-.99-53.8-6.61-20.68-5.97-40.87-13.63-60.27-22.95-21.3-10.96-39.44-27-56.333-43.78-16.169-16.09-30.437-34.21-41.313-54.3-13.692-25.27-21.67-53.33-25.495-81.73-2.24-16.41-3.504-32.96-3.525-49.52.241-18.99 3.081-38.05 9.661-55.91 7.538-22.2 18.233-43.26 30.881-62.97 19.447-29.37 45.124-54.516 74.634-73.732 20.62-13.653 43.01-25.016 67.01-31.323 20.36-5.385 41.39-8.063 62.43-8.459zm-192.94 71.352 16.187 16.192c5.349-6.41 11.308-12.312 17.718-17.661l-16.218-16.218c-6.2 5.581-12.105 11.488-17.687 17.687zm384.38 349.39-16.19-16.19c-5.35 6.41-11.31 12.31-17.72 17.66l16.22 16.22c6.2-5.59 12.1-11.49 17.69-17.69zm-17.82-366.85-16.18 16.188c6.41 5.349 12.3 11.303 17.65 17.723l16.22-16.223c-5.58-6.201-11.49-12.105-17.69-17.688zm-349 384.55 16.19-16.19c-6.41-5.35-12.31-11.3-17.658-17.72l-16.219 16.22c5.581 6.2 11.488 12.11 17.687 17.69z" fill="#666" filter="url(#n)"/><path d="m270.11 35.788c-130.91 0-237.16 106.25-237.16 237.15.005 130.91 106.25 237.16 237.16 237.16s237.13-106.25 237.13-237.16c0-130.9-106.22-237.15-237.13-237.15zm0 99.062c76.22 0 138.06 61.88 138.06 138.09 0 76.22-61.84 138.07-138.06 138.07s-138.09-61.85-138.09-138.07c0-76.21 61.87-138.09 138.09-138.09z" filter="url(#h)"/><path d="m259.97 15.79c-27.43 1.306-55.16 5.023-80.76 15.424-25.33 10.565-48.34 25.932-69.87 42.797-17.264 13.716-32.686 29.849-44.929 48.219-15.101 21.96-26.177 46.4-35.501 71.29-6.77 18.56-11.299 38.1-11.621 57.92-.876 26.18 2.22 52.42 8.105 77.92 7.107 30.14 19.477 59.2 37.644 84.36 12.306 17.25 27.298 32.38 42.892 46.65 11.95 10.76 24.57 20.98 38.86 28.49 10.42 5.69 21.47 10.1 32.68 13.96 15.24 5.37 30.54 10.7 46.19 14.75 18.39 4.36 37.5 4.46 56.23 2.73 14.8-1.28 29.54-3.28 44.21-5.61 21.45-3.72 42.94-9.61 61.65-21.1 10.89-6.44 21.38-13.54 31.72-20.83 21.65-15.72 41.56-33.93 58.66-54.52 10.51-12.94 19-27.55 24.51-43.31 6.54-17.84 11.3-36.28 15.93-54.7 4.66-20.96 6.33-42.55 5.54-63.99-.82-20.86-4.39-41.53-9.35-61.77-3.63-14.14-8.21-28.14-14.85-41.17-9.64-17.95-23.51-33.06-36.96-48.18-20.95-22.882-44.78-43.549-72.27-58.187-21.72-11.732-45.41-19.429-69.5-24.568-19.42-4.256-39.29-6.887-59.21-6.575zm10.94 7.063c21.24.312 42.3 4.041 62.83 9.297 24.29 6.361 47.96 15.897 68.71 30.192 25.59 17.342 47.3 39.788 66.55 63.838 9.55 12.15 18.41 24.95 25.31 38.8 9.23 20.61 12.92 43.09 16.32 65.25 3.77 27.82 4.64 56.36-1 84-4.74 24.42-12.35 48.28-22.34 71.06-3.82 8.31-8.8 16.02-14.44 23.21-11.5 14.9-25.3 27.83-39.17 40.5-21.03 18.87-43.93 36-69.46 48.32-18.9 8.95-39.84 12.19-60.48 14.25-12.21 1.11-24.45 2.02-36.7 2.57-18.12.57-36.49-1-53.8-6.62-20.68-5.96-40.88-13.63-60.28-22.95-21.3-10.96-39.44-27-56.327-43.78-16.169-16.09-30.437-34.2-41.313-54.29-13.692-25.28-21.67-53.33-25.495-81.74-2.24-16.4-3.504-32.96-3.525-49.52.241-18.98 3.081-38.04 9.661-55.9 7.538-22.2 18.233-43.26 30.881-62.97 19.447-29.38 45.128-54.52 74.628-73.736 20.62-13.652 43.01-25.016 67.02-31.323 20.35-5.385 41.38-8.063 62.42-8.458z" fill="url(#m)"/><path d="m270.16 31.784c-130.91 0-237.16 106.25-237.16 237.16.005 130.91 106.25 237.16 237.16 237.16s237.13-106.25 237.13-237.16-106.22-237.16-237.13-237.16zm0 99.066c76.22 0 138.06 61.87 138.06 138.09s-61.84 138.06-138.06 138.06-138.09-61.84-138.09-138.06 61.87-138.09 138.09-138.09z" fill="#e20a08"/><path d="m77.971 94.204 16.187 16.186c5.349-6.41 11.312-12.306 17.722-17.655l-16.222-16.218c-6.2 5.581-12.105 11.488-17.687 17.687z" fill="url(#l)"/><path d="m462.34 443.59-16.18-16.18c-5.35 6.41-11.31 12.3-17.72 17.65l16.22 16.22c6.2-5.58 12.1-11.49 17.68-17.69z" fill="url(#j)"/><path d="m444.53 76.745-16.19 16.188c6.41 5.349 12.31 11.307 17.66 17.717l16.22-16.217c-5.58-6.201-11.49-12.105-17.69-17.688z" fill="url(#i)"/><path d="m95.526 461.3 16.184-16.19c-6.41-5.35-12.304-11.31-17.652-17.72l-16.219 16.22c5.581 6.2 11.488 12.1 17.687 17.69z" fill="url(#k)"/><path d="m270.16 71.768c-108.84 0-197.19 88.352-197.19 197.19.004 108.83 88.35 197.15 197.19 197.15s197.16-88.32 197.16-197.15c0-108.84-88.32-197.19-197.16-197.19zm0 29.502c92.57 0 167.69 75.12 167.69 167.69 0 92.56-75.12 167.68-167.69 167.68-92.56 0-167.72-75.12-167.72-167.68 0-92.57 75.16-167.69 167.72-167.69z" fill="#f55" filter="url(#c)"/><path d="m111.57 92.659c-6.2 5.582-12.107 11.491-17.69 17.691l70.22 70.21c5.34-6.4 11.25-12.34 17.66-17.68z" fill="url(#d)"/><path d="m376.19 357.31c-5.35 6.42-11.27 12.34-17.68 17.69l70.21 70.22c6.2-5.58 12.11-11.49 17.69-17.69z" fill="url(#f)"/><path d="m428.72 92.659-70.18 70.191c6.41 5.35 12.3 11.3 17.65 17.71l70.22-70.21c-5.58-6.2-11.49-12.109-17.69-17.691z" fill="url(#e)"/><path d="m164.1 357.31-70.22 70.22c5.583 6.2 11.49 12.11 17.69 17.69l70.22-70.22c-6.42-5.35-12.34-11.27-17.69-17.69z" fill="url(#g)"/></svg>