<svg height="700" width="700" xmlns="http://www.w3.org/2000/svg"><g transform="translate(0 -2.362169)"><path d="m45 2.3621831h610c24.93 0 45 13.3799999 45 29.9999999v639.999997c0 16.62-20.07 30-45 30h-610c-24.93 0-45-13.38-45-30v-639.999997c0-16.62 20.07-29.9999999 45-29.9999999z" fill="#fff"/><path d="m50 22.36681h599.49414c16.61743 0 29.99536 13.37793 29.99536 29.995359v599.494141c0 16.61743-13.37793 29.99536-29.99536 29.99536h-599.49414c-16.617429 0-29.995359-13.37793-29.995359-29.99536v-599.494141c0-16.617429 13.37793-29.995359 29.995359-29.995359z" fill="#fff" height="659.48486" ry="29.995359" stroke="#000" stroke-width="5" transform="matrix(1.0534961 0 0 1.057596 -18.439985 -18.761425)" width="659.48486" x="20.004641" y="22.36681"/><path d="m70.000002 52.362167h559.999998c11.08 0 20 8.920001 20 20.000002v560.000001c0 11.08-8.92 20-20 20h-559.999998c-11.080001 0-20.000002-8.92-20.000002-20v-560.000001c0-11.080001 8.920001-20.000002 20.000002-20.000002z" fill="#0569e2" height="600" ry="20.000002" transform="matrix(1.0666667 0 0 1.0666666 -23.333335 -23.49081)" width="600" x="50" y="52.362167"/><path d="m110 112.36217h480c11.08 0 20 8.92 20 20v440c0 11.08-8.92 20-20 20h-480c-11.079999 0-20-8.92-20-20v-440c0-11.08 8.920001-20 20-20z" fill="#fff" height="480" ry="20.000002" transform="translate(0 -26)" width="520" x="90" y="112.36217"/><path d="m304.25335 109.23539-168.745 317.83916 39.7945 22.5483-58.1826 20.2566c-.2491.182 7.5647 4.6399 18.5152 8.5455 10.9483 3.9049 25.0322 7.2546 35.1549 9.2153 6.1709 1.1953 22.9569 2.9754 22.9569 2.9754l15.0817.1693s10.6447.1195 22.8302-.691c10.9829-.7304 23.2193-2.099 30.05-7.0648 7.2564-5.275 15.0399-15.6229 19.4744-26.5247 5.1969-12.7766 6.43-25.8691 6.43-25.8691l1.2058-1.8121 2.3547-.5993s1.0657 1.8202 1.805 2.5595c.6787.6775 2.3552 1.6569 2.3552 1.6569s64.0556 2.7738 95.6074-1.7627c23.1211-3.3243 56.0812-6.2174 84.3126-14.6655 11.9872-3.5871 24.83-8.3652 35.6765-13.4387 15.702-7.3447 18.3394-9.1302 27.364-14.6866 18.2805-11.2555 31.9825-30.5611 39.9987-50.4761 4.4609-11.0821 5.8312-23.9791 3.4053-35.6766-2.0324-9.8018-1.5198-14.0652-10.0046-31.143-7.882-15.8636-26.5492-31.8567-37.9682-39.5827-14.4558-9.78078-36.6787-22.14311-58.6901-30.79758-31.0082-12.19161-60.333-20.25671-60.333-20.25671.6757-.13537 21.9879 28.15467 26.3978 44.90603 4.1082 15.60596 2.1787 48.36086 2.1787 48.36086s19.7313-6.2861 42.4806-7.368c19.9739-.9495 42.272 2.6915 55.5808 10.2165 3.6652 2.0724 8.7163 6.4075 11.2812 11.2388 2.7732 5.2168 2.9118 10.8722 2.9118 10.8722s-4.506 18.8287-12.092 30.8328c-6.5351 10.341-15.5654 13.6353-23.507 18.6774-9.9573 6.3218-27.4184 10.7966-42.2763 12.4233-14.5861 1.5973-26.6657.4019-26.6657.4019s13.1951-19.7891 20.3836-28.3016c3.5028-4.148 11.6902-9.6806 11.6902-9.6806l-106.346-.5993-35.0279-23.211-37.4393 60.0439c-42.6034-8.0203-87.0294-2.9652-136.0647 35.028l147.3386-278.04498zm270.2681 248.93256s-9.2545 17.3456-26.377 30.5508c-18.9194 14.591-46.6653 25.4664-64.8595 32.1019-32.5637 11.8763-86.5879 17.1551-127.8715 18.6068-32.5153 1.1431-57.1252-.4724-57.1252-.4724l-1.2057-.6063s.05 7.6042-2.7497 16.2518c-2.9631 9.1563-8.904 19.5501-13.375 25.855-6.5752 9.2717-26.0174 22.0406-26.0174 22.0406s23.8493.7149 35.7755.6134c11.6263-.099 34.8799-1.2198 34.8799-1.2198s47.462-5.2025 89.9178-14.8135c17.0484-3.8595 33.0384-7.0577 45.3007-11.9863 8.339-3.3517 17.6787-7.7005 27.0044-13.1707 11.732-6.8817 23.738-15.7638 35.3029-25.1217 7.1261-5.7663 14.1489-11.9174 20.179-17.6832 7.9787-7.629 18.0249-20.7178 23.6695-33.5403 6.1517-13.9747 7.5513-27.4061 7.5513-27.4061zm-382.8189 43.785a11.69819 11.69819 0 0 1 11.6974 11.6971 11.69819 11.69819 0 0 1 -11.6974 11.6971 11.69819 11.69819 0 0 1 -11.697-11.6971 11.69819 11.69819 0 0 1 11.697-11.6971zm271.1706 87.5205c-28.5224 2.4284-56.692 4.4866-89.9528 11.8593-4.3825.9715-7.5586 3.5305-7.5586 7.9179 0 4.3875 4.4049 7.8311 7.6784 10.7524 5.4179 4.8352 10.2267 9.7521 16.2167 13.3964 7.3351 4.4627 23.6973 10.0895 23.6973 10.0895s.1841-6.7975 2.7569-13.77c1.9256-5.2197 5.8305-10.3902 8.4889-13.6855 9.8194-12.1707 38.6732-26.56 38.6732-26.56z" fill-rule="evenodd" stroke-width="11.5752"/></g></svg>